<svg xmlns="http://www.w3.org/2000/svg" viewBox="0 0 1400 980" role="img" aria-labelledby="title desc">
  <title id="title">Mágina Aventura — Sierra Mágina · Jaén</title>
  <desc id="desc">Logotipo oficial de Mágina Aventura con Sierra Mágina, sendero blanco y sol dorado.</desc>
  <defs>
    <linearGradient id="mountain" x1="210" y1="180" x2="1150" y2="650" gradientUnits="userSpaceOnUse">
      <stop stop-color="#0D5132"/>
      <stop offset="1" stop-color="#2F4A2E"/>
    </linearGradient>
    <linearGradient id="sun" x1="790" y1="80" x2="1000" y2="320" gradientUnits="userSpaceOnUse">
      <stop stop-color="#D4AF37"/>
      <stop offset="1" stop-color="#E2B64A"/>
    </linearGradient>
  </defs>
  <g data-brand-mark="mountain-path-sun">
    <circle cx="902" cy="218" r="128" fill="url(#sun)"/>
    <path d="M150 650 326 508 405 421 495 377 576 274 690 142 793 250 876 219 955 285 1027 257 1172 413 1290 650Z" fill="url(#mountain)"/>
    <path d="M690 177 669 262 683 305 729 348 782 377 814 399 789 423 742 438 686 436 627 441 568 457 515 480 480 510 484 541 521 566 572 586 619 611 649 640" fill="none" stroke="#FAF9F6" stroke-width="58" stroke-linecap="round" stroke-linejoin="round"/>
    <path d="M876 249 918 292 947 274 995 324 1028 363" fill="none" stroke="#FAF9F6" stroke-width="31" stroke-linecap="square" stroke-linejoin="miter"/>
    <path d="M394 433 436 397 471 435 500 427 530 456" fill="none" stroke="#FAF9F6" stroke-width="27" stroke-linecap="square" stroke-linejoin="miter"/>
    <path d="M150 650 Q438 620 688 647 T1290 650" fill="#21482C" opacity=".4"/>
  </g>
  <text x="700" y="800" text-anchor="middle" font-family="Georgia, 'Times New Roman', serif" font-size="128" font-weight="700" fill="#0D3F2A">Mágina <tspan fill="#496B35">Aventura</tspan></text>
  <path d="M126 893H345M1055 893H1274" stroke="#2F4A2E" stroke-width="4"/>
  <text x="700" y="908" text-anchor="middle" font-family="Arial, Helvetica, sans-serif" font-size="34" font-weight="500" letter-spacing="13" fill="#36533A">SIERRA MÁGINA · JAÉN</text>
</svg>
